<?xml version="1.0" standalone="no"?>
<!DOCTYPE svg PUBLIC "-//W3C//DTD SVG 20010904//EN"
 "http://www.w3.org/TR/2001/REC-SVG-20010904/DTD/svg10.dtd">
<svg version="1.0" xmlns="http://www.w3.org/2000/svg"
 width="200.000000pt" height="200.000000pt" viewBox="0 0 200.000000 200.000000"
 preserveAspectRatio="xMidYMid meet">
<metadata>
Created by potrace 1.14, written by Peter Selinger 2001-2017
</metadata>
<g transform="translate(0.000000,200.000000) scale(0.100000,-0.100000)"
fill="#000000" stroke="none">
<path d="M585 1872 c-63 -46 -125 -119 -151 -179 -51 -114 -63 -199 -79 -528
-8 -171 -22 -349 -30 -397 -31 -175 -89 -311 -182 -424 -24 -31 -42 -61 -40
-68 3 -7 262 -59 668 -135 365 -67 673 -123 683 -124 16 -2 24 11 42 69 37
117 45 211 54 604 9 397 15 453 65 586 52 137 163 269 294 349 41 24 61 43 59
53 -3 13 -116 33 -648 113 -355 53 -656 100 -670 103 -19 5 -35 0 -65 -22z
m665 -121 c332 -50 605 -93 607 -95 2 -1 -15 -16 -38 -31 -56 -39 -157 -151
-197 -218 -18 -30 -44 -86 -57 -124 -51 -147 -56 -196 -65 -603 -8 -378 -17
-474 -51 -577 -8 -27 -15 -32 -32 -28 -12 3 -294 55 -627 116 -332 61 -606
111 -607 113 -1 1 14 24 34 52 48 67 107 193 131 284 33 123 42 210 57 520 20
421 41 508 156 623 38 38 72 66 77 63 4 -2 280 -46 612 -95z"/>
<path d="M571 1562 c-6 -12 -14 -42 -17 -67 l-7 -45 56 0 56 0 11 40 c13 49 8
60 -32 60 -17 0 -36 7 -43 17 -11 15 -13 15 -24 -5z m69 -62 c0 -16 -7 -20
-30 -20 -32 0 -33 1 -24 24 9 24 54 21 54 -4z"/>
<path d="M734 1536 c-10 -25 0 -51 21 -54 11 -2 27 -10 35 -17 8 -7 26 -15 40
-19 14 -4 41 -12 60 -17 117 -34 597 -56 588 -26 -4 9 -60 14 -209 19 -199 7
-298 17 -369 36 -56 15 -140 56 -140 69 0 19 -20 26 -26 9z"/>
<path d="M520 1345 c-6 -14 -10 -46 -10 -71 l0 -44 55 0 56 0 -3 68 -3 67 -43
3 c-38 3 -43 0 -52 -23z m70 -45 c0 -36 -2 -40 -25 -40 -28 0 -34 25 -15 61
19 34 40 23 40 -21z"/>
<path d="M698 1264 c-19 -18 -1 -22 115 -27 67 -3 145 -10 172 -16 28 -6 82
-15 120 -20 77 -10 135 -28 135 -42 0 -5 48 -9 106 -9 80 0 105 3 102 13 -3 8
-35 14 -94 18 -54 3 -104 12 -129 23 -22 11 -71 23 -110 27 -38 5 -92 14 -120
20 -62 13 -287 24 -297 13z"/>
<path d="M492 1118 c-13 -13 -16 -75 -6 -102 5 -13 23 -16 90 -16 l84 0 0 36
c0 47 -21 63 -84 64 -32 0 -53 5 -60 15 -9 13 -14 13 -24 3z m122 -54 c9 -3
16 -13 16 -21 0 -23 -114 -14 -118 10 -3 14 4 17 41 17 25 0 52 -3 61 -6z"/>
<path d="M787 1044 c-22 -22 7 -31 148 -44 137 -14 189 -21 200 -30 6 -4 63
-10 128 -14 95 -6 118 -4 115 6 -5 15 -68 26 -153 27 -34 1 -65 5 -70 10 -10
9 -43 14 -210 30 -49 5 -104 12 -120 16 -17 4 -33 3 -38 -1z"/>
<path d="M484 929 c-4 -7 -2 -15 4 -17 7 -2 12 -24 12 -53 l0 -49 55 0 56 0
-3 63 -3 62 -57 3 c-37 2 -59 -1 -64 -9z m96 -54 c0 -31 -3 -35 -25 -35 -22 0
-25 4 -25 35 0 31 3 35 25 35 22 0 25 -4 25 -35z"/>
<path d="M715 832 c-18 -18 5 -29 83 -41 101 -15 155 -27 197 -46 53 -24 188
-56 258 -62 37 -3 70 -10 73 -14 7 -12 64 -11 64 1 0 16 -61 36 -132 43 -71 7
-139 23 -253 63 -73 24 -281 65 -290 56z"/>
<path d="M446 671 c-10 -11 -20 -38 -23 -60 l-6 -41 52 0 c47 0 51 2 51 24 0
14 5 28 10 31 19 11 11 44 -12 50 -13 4 -30 9 -39 11 -9 2 -24 -4 -33 -15z
m50 -37 c-3 -9 -6 -20 -6 -25 0 -5 -9 -9 -21 -9 -15 0 -19 4 -15 16 3 9 6 20
6 25 0 5 9 9 21 9 15 0 19 -4 15 -16z"/>
<path d="M567 673 c-14 -13 -6 -23 18 -23 31 0 207 -30 219 -37 23 -14 584
-78 595 -68 14 14 -26 28 -106 36 -281 30 -466 53 -479 62 -12 7 -188 37 -217
37 -13 0 -27 -3 -30 -7z"/>
<path d="M359 462 c-18 -47 -13 -52 55 -52 63 0 65 1 71 30 10 44 0 51 -62 48
-47 -3 -57 -6 -64 -26z m91 -12 c0 -5 -13 -10 -30 -10 -16 0 -30 5 -30 10 0 6
14 10 30 10 17 0 30 -4 30 -10z"/>
<path d="M595 460 c-4 -6 -5 -13 -4 -14 15 -13 157 -38 264 -46 125 -10 263
-24 389 -39 33 -4 61 -12 64 -19 6 -19 32 -14 32 6 0 22 -39 42 -83 42 -18 0
-50 5 -72 10 -22 5 -119 14 -215 20 -96 6 -206 18 -245 26 -38 8 -82 17 -96
20 -15 4 -30 1 -34 -6z"/>
</g>
</svg>
